<?xml version="1.0" standalone="no"?>
<!DOCTYPE svg PUBLIC "-//W3C//DTD SVG 20010904//EN"
 "http://www.w3.org/TR/2001/REC-SVG-20010904/DTD/svg10.dtd">
<svg version="1.0" xmlns="http://www.w3.org/2000/svg"
 width="210.000000pt" height="210.000000pt" viewBox="0 0 210.000000 210.000000"
 preserveAspectRatio="xMidYMid meet">
<metadata>
Created by potrace 1.14, written by Peter Selinger 2001-2017
</metadata>
<g transform="translate(0.000000,210.000000) scale(0.100000,-0.100000)"
fill="#000000" stroke="none">
<path d="M0 1050 l0 -1050 1050 0 1050 0 0 1050 0 1050 -1050 0 -1050 0 0
-1050z m473 804 c99 -50 277 -200 419 -352 75 -81 135 -148 133 -150 -1 -1
-119 73 -261 165 l-259 168 -47 90 c-63 121 -64 118 15 79z m480 -282 c77 -59
148 -122 160 -141 20 -32 20 -33 1 -23 -36 20 -235 186 -382 320 -34 31 -32
30 23 -7 33 -23 122 -89 198 -149z m-299 -36 c59 -27 402 -261 451 -308 14
-13 -39 9 -246 103 -122 56 -182 89 -196 107 -62 85 -94 132 -89 132 2 0 39
-15 80 -34z m841 -14 c78 -20 75 -29 -12 -38 -43 -5 -76 -2 -119 11 l-59 18
40 13 c54 17 69 16 150 -4z m445 9 c-27 -16 -290 -111 -305 -111 -14 0 -38 39
-30 48 3 3 320 69 340 71 6 0 3 -3 -5 -8z m-602 -70 c8 -5 -18 -26 -73 -60
-48 -29 -89 -51 -92 -48 -9 10 29 72 60 99 32 27 65 30 105 9z m86 -64 c-2
-23 18 -21 34 3 9 15 23 20 59 20 l47 0 -64 -65 c-35 -36 -67 -65 -71 -65 -3
0 -12 19 -18 43 -7 23 -17 47 -23 54 -5 7 -7 17 -3 23 10 17 40 7 39 -13z
m-35 -118 c1 -58 -16 -92 -67 -126 -25 -18 -48 -30 -50 -28 -3 2 17 64 44 137
l48 133 12 -40 c7 -22 13 -56 13 -76z m-221 24 c16 -11 28 -6 85 33 37 26 70
45 72 42 3 -3 -21 -61 -53 -129 l-59 -124 -31 68 c-17 37 -52 92 -77 121 -25
29 -45 56 -45 60 0 4 20 -8 45 -26 25 -18 54 -39 63 -45z m476 65 c-4 -7 -29
-38 -54 -68 -26 -30 -57 -82 -70 -115 -35 -90 -41 -89 -38 5 l3 85 75 52 c76
53 97 63 84 41z m-713 -115 c104 -47 188 -88 186 -89 -2 -2 -72 9 -156 25
-132 24 -156 32 -172 52 -26 35 -61 99 -54 99 3 0 91 -39 196 -87z m61 -109
c59 -9 105 -20 103 -25 -18 -28 -170 -13 -215 21 -31 24 -24 25 112 4z m397
-49 l9 -49 -76 -83 c-70 -75 -84 -86 -154 -113 -43 -17 -80 -30 -84 -30 -3 0
27 27 68 61 62 51 78 71 105 131 23 51 43 81 74 105 23 18 44 32 46 30 1 -2 7
-25 12 -52z m-514 -15 c22 -5 65 -13 95 -18 51 -8 53 -9 30 -19 -14 -6 -50
-23 -81 -37 l-57 -25 -23 47 c-13 26 -27 49 -31 50 -17 7 -7 24 10 17 9 -3 35
-10 57 -15z m335 -38 c-8 -35 -23 -60 -51 -88 l-39 -38 0 44 c0 39 5 50 47 92
26 26 49 46 51 43 2 -2 -1 -26 -8 -53z m-130 -62 c0 -57 -1 -60 -27 -67 -52
-14 -141 -9 -159 9 -16 15 -10 20 82 67 55 27 100 50 102 50 1 1 2 -26 2 -59z
m-65 -155 c-33 -27 -65 -33 -65 -11 0 8 17 18 38 24 57 15 59 14 27 -13z m-7
-397 c7 -7 12 -35 12 -63 0 -60 -12 -75 -57 -75 -31 0 -33 -2 -33 -35 0 -32
-2 -35 -30 -35 l-30 0 0 110 0 110 63 0 c36 0 68 -5 75 -12z m210 0 c15 -15
16 -100 1 -115 -9 -9 -8 -22 5 -52 l16 -41 -34 0 c-29 0 -35 5 -49 38 l-15 37
-1 -37 c-1 -35 -3 -38 -31 -38 l-30 0 0 110 0 110 63 0 c36 0 68 -5 75 -12z"/>
<path d="M930 365 c0 -24 5 -35 15 -35 10 0 15 11 15 35 0 24 -5 35 -15 35
-10 0 -15 -11 -15 -35z"/>
<path d="M1140 370 c0 -20 5 -30 15 -30 10 0 15 10 15 30 0 20 -5 30 -15 30
-10 0 -15 -10 -15 -30z"/>
</g>
</svg>
